<svg width="654" height="654" viewBox="0 0 654 654" fill="none" xmlns="http://www.w3.org/2000/svg">
<path d="M312.727 179.506L195.249 59.832V179.506L312.727 294.788V179.506Z" fill="#B90000"/>
<path d="M458.751 178.408L341.273 298.081V178.408L458.751 63.1256V178.408Z" fill="#B90000"/>
<path d="M196.347 481.434L313.825 361.761V481.434L196.347 596.716V481.434Z" fill="#B90000"/>
<path d="M342.371 480.336L459.849 600.01V480.336L342.371 365.054V480.336Z" fill="#B90000"/>
<path d="M175.379 343.458L55.7059 460.936H175.379L290.661 343.458H175.379Z" fill="#B90000"/>
<path d="M175.605 199.613L295.278 317.091H175.605L60.3227 199.613L175.605 199.613Z" fill="#B90000"/>
<path d="M481.689 458.033L362.016 340.555H481.689L596.971 458.033H481.689Z" fill="#B90000"/>
<path d="M479.719 318.579L599.392 201.102H479.719L364.437 318.579H479.719Z" fill="#B90000"/>
<path d="M277.3 53.7086L330.091 0.916914L382.883 53.7086L330.091 106.5L277.3 53.7086Z" fill="#B90000"/>
<path d="M547.682 328.915L600.474 276.123L653.266 328.915L600.474 381.706L547.682 328.915Z" fill="#B90000"/>
<path d="M0.916901 328.915L53.7086 276.123L106.5 328.915L53.7086 381.706L0.916901 328.915Z" fill="#B90000"/>
<path fill-rule="evenodd" clip-rule="evenodd" d="M328.033 312.322L309.401 330.954L328.033 349.586L346.666 330.954L328.033 312.322ZM290.769 330.954L328.033 368.219L365.298 330.954L328.033 293.689L290.769 330.954Z" fill="#B90000"/>
<path d="M277.593 601.2L330.385 548.408L383.177 601.2L330.385 653.991L277.593 601.2Z" fill="#B90000"/>
</svg>
